<svg version="1.1" id="Layer_1" xmlns="http://www.w3.org/2000/svg" xmlns:xlink="http://www.w3.org/1999/xlink" x="0px" y="0px"
	 viewBox="0 0 825.4 199.3" style="enable-background:new 0 0 825.4 199.3;" xml:space="preserve">
<style type="text/css">
	.st0{fill-rule:evenodd;clip-rule:evenodd;fill:#212F64;}
	.st1{fill:#212F64;}
</style>
<g>
	<g>
		<path class="st0" d="M10.2,63.6h81.1v4.1H73.7l2.4,6.8h-53l-3-6.8l-9.9-0.1V63.6z"/>
		<path class="st0" d="M25.2,80.9h52.7l6.8,16.9H32.4L25.2,80.9z"/>
		<path class="st0" d="M34.8,104.6h52.7l7.7,20.4H42.5L34.8,104.6z"/>
		<path class="st0" d="M45.3,132H98l7.8,20l8.4-20.1h6.4l-8.7,21H53.3L45.3,132z"/>
		<path class="st0" d="M56.1,160h52.7l-12.9,31.4H68.7L56.1,160z"/>
		<path class="st0" d="M117.7,124.8h5.5l8.3-20.1h-6.4L117.7,124.8z"/>
		<path class="st0" d="M128.5,97.8l5.3-0.1l7.6-16.6h-7L128.5,97.8z"/>
		<path class="st0" d="M122,63.8h34.6l-0.1,4c0,0-4.1-0.4-6.8,1.6c-2.7,2.1-5.2,4.7-5.2,4.7h-10.2c0,0-2.5-3.7-5.5-5
			c-3-1.3-6.8-0.9-6.8-0.9V63.8z"/>
		<path class="st0" d="M160.3,74.1h44.4c0,0-0.7-9.2-9.3-12.3c-8.6-3.1-23.7-1.5-26.8,0.4C165.5,64.2,160.9,66.3,160.3,74.1z"/>
		<path class="st0" d="M160,80.9h44.9c0,0-2.5,13.2-20.3,13C166.8,93.8,162,88,160,80.9z"/>
	</g>
	<polygon class="st0" points="151.3,104.9 204,104.9 204,125 161.8,125 161.8,109.5 151.2,109.5 	"/>
	<polygon class="st0" points="204,131.4 161.8,131.4 161.8,153.2 204.1,153.2 	"/>
	<polygon class="st0" points="204.1,159.6 161.8,159.6 161.8,187 149.8,187 149.8,191.7 215.2,191.7 215.2,187.1 204.1,187.1 	"/>
	<path class="st0" d="M221.5,63.5h132.9v10.9h-23.8c0,0-5.1-5.8-16-6.2v6h-53.7v-6c0,0-11.1,1.2-16,6.5h-23.1L221.5,63.5z"/>
	<path class="st0" d="M221.8,80.6h15.7c0,0-7.6,12.7-9,16.9H222L221.8,80.6z"/>
	<path class="st0" d="M222,104.3l4.3,0.2c0,0-0.6,2.3-0.8,3.1l-3.5,0.2V104.3z"/>
	<polygon class="st0" points="261.2,80.8 261.2,97.9 314.7,97.9 314.7,81 	"/>
	<path class="st0" d="M338.5,81.1l15.6,0.2l0.2,16.8h-6.8C347.4,98.1,343.4,86.7,338.5,81.1z"/>
	<path class="st0" d="M349.9,104.6h4.2v3.1h-3.2C350.8,107.6,350.5,105,349.9,104.6z"/>
	<polygon class="st0" points="261.2,104.3 314.9,104.3 314.9,124.9 261.3,124.9 	"/>
	<rect x="261.2" y="131.3" class="st0" width="53.5" height="21.8"/>
	<polygon class="st0" points="261,159.6 314.9,159.6 314.9,186.3 331.8,186.3 331.8,191.4 244.2,191.4 244.2,186.6 261.2,186.8 	"/>
	<path class="st0" d="M361.3,104.9h52.9v18.8h1.4c0,0,8.2-16.7,18.1-19.6h22.7c0,0,10.3,3.5,9.9,20.8h-39.5c0,0,0.6-3.8-1.5-4
		c-3.1-0.3-4.6,4.2-4.6,4.2h-48.5v-15.3h-10.6L361.3,104.9z"/>
	<path class="st0" d="M372.3,131.6v21.3h42.1c0,0,1.1-18.7,3.4-21.4L372.3,131.6z"/>
	<path class="st0" d="M427.4,131.4h37c0,0-0.6,8.5-13,11.1C439.1,145.1,429.1,138.2,427.4,131.4z"/>
	<polygon class="st0" points="372.3,159 414.4,159 414.4,187 429.1,187 429.1,191.4 361.6,191.4 361.6,187.3 372.3,187.4 	"/>
	<path class="st0" d="M508.8,104.1h40.1c0,0,19.6,4.6,29.2,20.7l-40.3,0.3c0,0,0.3-12.2-1.7-15.6c-2.2-3.7-15.4-5.5-16,3.9
		c-0.5,6.5-0.6,11.7-0.6,11.7l-40.7-0.2C478.7,124.9,487.7,110.4,508.8,104.1z"/>
	<path class="st0" d="M475.7,131.3h44v22.1h-47.1C472.6,153.3,472.9,136.3,475.7,131.3z"/>
	<path class="st0" d="M537.8,131.7V153h47.1c0,0,0.8-16.4-3.2-21.3H537.8z"/>
	<path class="st0" d="M474,159.3h45.2V182c0,0,1.2,8.6,9.4,8.5c8.2-0.2,8.8-5.4,9.3-9.4c0.5-4,0-21.8,0-21.8h45.5
		c0,0-4.8,32.9-48.3,35.8c0,0-9.6,0.2-16.2-0.5C512.2,194.1,480.3,189.6,474,159.3z"/>
	<polygon class="st0" points="588.9,104.6 588.9,109.3 598.8,109.3 609.6,124.9 658.2,124.9 647.4,109.2 656.3,109.2 656.3,104.9 	
		"/>
	<path class="st0" d="M667.3,104.6h42.3v4.6c0,0-9.3-1.2-26.4,15.6h-7.7c0,0,5.4-4.9,3.9-10c-1.9-6-12.2-5.1-12.2-5.1L667.3,104.6z"
		/>
	<polygon class="st0" points="614.2,131.4 663,131.4 665.3,134.5 668.4,131.4 676.4,131.4 668.8,139.9 677.5,152.9 629,152.9 	"/>
	<path class="st0" d="M625.2,159.2h57.4l19.1,27.6l8.3,0.3v4.5h-65.9v-4.8l7.7-0.3l-18.7-26.2c0,0-12.3,8.5-14.5,14.5
		c-2.2,6-0.9,12.5,14.7,12.5v4.5l-45.4,0.2V187c0,0,0.7,0.1,7.6-1.7C604.2,182.9,625.2,159.2,625.2,159.2z"/>
	<g>
		<g>
			<path class="st1" d="M759.1,164.3c2.3,0,4.6,0.6,6.8,1.8c2.2,1.2,3.9,2.9,5.2,5.1c1.2,2.2,1.8,4.5,1.8,6.9c0,2.4-0.6,4.7-1.8,6.8
				c-1.2,2.2-2.9,3.9-5.1,5.1c-2.2,1.2-4.5,1.8-6.9,1.8s-4.7-0.6-6.9-1.8c-2.2-1.2-3.9-2.9-5.1-5.1c-1.2-2.2-1.8-4.5-1.8-6.8
				c0-2.4,0.6-4.7,1.9-6.9c1.2-2.2,3-3.9,5.2-5.1C754.5,164.9,756.8,164.3,759.1,164.3z M759.1,166.6c-1.9,0-3.8,0.5-5.7,1.5
				c-1.8,1-3.3,2.4-4.3,4.3c-1,1.8-1.6,3.8-1.6,5.8c0,2,0.5,3.9,1.5,5.7c1,1.8,2.4,3.2,4.3,4.3c1.8,1,3.7,1.5,5.7,1.5
				c2,0,3.9-0.5,5.7-1.5c1.8-1,3.2-2.4,4.3-4.3c1-1.8,1.5-3.7,1.5-5.7c0-2-0.5-3.9-1.5-5.8c-1-1.8-2.5-3.3-4.3-4.3
				C762.9,167.1,761,166.6,759.1,166.6z M753,185.7v-14.8h5.1c1.7,0,3,0.1,3.8,0.4c0.8,0.3,1.4,0.8,1.9,1.4c0.5,0.7,0.7,1.4,0.7,2.2
				c0,1.1-0.4,2-1.2,2.8c-0.8,0.8-1.8,1.3-3.1,1.4c0.5,0.2,0.9,0.5,1.3,0.8c0.6,0.6,1.3,1.6,2.2,2.9l1.8,2.9h-2.9l-1.3-2.3
				c-1-1.8-1.9-3-2.5-3.5c-0.4-0.3-1.1-0.5-1.9-0.5h-1.4v6.3H753z M755.4,177.4h2.9c1.4,0,2.3-0.2,2.8-0.6c0.5-0.4,0.8-1,0.8-1.6
				c0-0.4-0.1-0.8-0.4-1.2c-0.2-0.3-0.6-0.6-1-0.8c-0.4-0.2-1.2-0.3-2.4-0.3h-2.7V177.4z"/>
		</g>
	</g>
	<path class="st1" d="M813.7,60.3h-18.4c-1.6-17.4-15.4-31.3-32.9-32.9V9h-6.6v18.4c-17.4,1.6-31.3,15.4-32.9,32.9h-18.4v6.6h18.4
		c1.6,17.4,15.4,31.3,32.9,32.9v18.4h6.6V99.8c17.4-1.6,31.3-15.4,32.9-32.9h18.4V60.3z M788.8,60.3h-26.4V33.9
		C776.2,35.5,787.2,46.5,788.8,60.3z M755.8,33.9v26.4h-26.4C730.9,46.5,741.9,35.5,755.8,33.9z M729.4,66.9h26.4v26.4
		C741.9,91.8,730.9,80.8,729.4,66.9z M762.4,93.3V66.9h26.4C787.2,80.8,776.2,91.8,762.4,93.3z"/>
</g>
</svg>